<svg width="405" height="405" viewBox="0 0 405 405" fill="none" xmlns="http://www.w3.org/2000/svg">
<g clip-path="url(#clip0_467_3718)">
<path d="M132.489 153.343C148.544 104.349 106.582 39.758 67 24.0025C27.4182 8.247 -8 24.0024 -8 24.0024V295.481C9.54941 257.455 28.8724 264.402 36.3403 272.629C42.5635 278.113 63.8779 291.276 99.3501 300.051C143.69 311.02 144.624 297.309 167.027 281.313C184.95 268.516 178.851 252.519 173.562 246.121C156.137 224.793 123.527 176.378 132.489 153.343Z" fill="#EADBC8" stroke="#102C57" stroke-width="10"/>
<path d="M323.083 224.539C341.525 191.879 390.047 185.277 412.002 186.06H420V416H404.474C391.772 388.939 361.85 335.474 343.784 338.102C230.4 347.018 228.989 300.561 220.05 279.444C212.899 262.55 226.166 255.198 233.693 253.634C261.138 248.785 317.437 236.177 323.083 224.539Z" fill="#DAC0A3" stroke="#102C57" stroke-width="10"/>
<ellipse cx="99.5" cy="142.5" rx="13.5" ry="14.5" fill="#102C57"/>
<circle cx="349.5" cy="242.5" r="13.5" fill="#102C57"/>
<path d="M15.5773 183.075C47.1485 172.538 74.3471 75.1617 81 30.9769C74.1959 24.604 27.0928 6.02322 -13 27.5C-43.7613 43.9781 -56.5464 57.3178 -57 69.2137C-45.9622 111.558 -15.9938 193.611 15.5773 183.075Z" fill="#DAC0A3" stroke="#102C57" stroke-width="10"/>
<ellipse cx="170.719" cy="261.825" rx="12.4694" ry="17.3083" transform="rotate(8.18931 170.719 261.825)" fill="#102C57"/>
<ellipse cx="227.014" cy="269.047" rx="12.4694" ry="17.3083" transform="rotate(11.3911 227.014 269.047)" fill="#102C57"/>
<path d="M78.3006 251.974C78.8387 249.266 77.0793 246.634 74.3708 246.096C71.6623 245.558 69.0304 247.317 68.4923 250.026L78.3006 251.974ZM68.4923 250.026C65.7872 263.642 73.1382 291.409 114.063 308.609L117.937 299.391C80.4004 283.614 76.7159 259.951 78.3006 251.974L68.4923 250.026Z" fill="#102C57"/>
<path d="M287 337C302.248 336.368 335.395 329.684 346 308" stroke="#102C57" stroke-width="10" stroke-linecap="round"/>
</g>
<defs>
<clipPath id="clip0_467_3718">
<rect width="405" height="405" fill="white"/>
</clipPath>
</defs>
</svg>
